<svg width="409" height="95" viewBox="0 0 409 95" fill="none" xmlns="http://www.w3.org/2000/svg">
<path d="M61.0522 1.7666L75.4828 20.3876C75.5004 20.4073 75.5123 20.4316 75.5169 20.4577C75.5216 20.4838 75.5188 20.5106 75.509 20.5352C75.4992 20.5598 75.4827 20.5812 75.4614 20.5969C75.4401 20.6126 75.4149 20.622 75.3886 20.624L60.8167 22.2405C60.8059 22.2429 60.7946 22.2429 60.7837 22.2405L46.2096 20.6169C46.183 20.6153 46.1575 20.6062 46.1359 20.5907C46.1142 20.5751 46.0974 20.5538 46.0873 20.5291C46.0773 20.5044 46.0743 20.4774 46.0789 20.4511C46.0834 20.4248 46.0952 20.4004 46.113 20.3805L51.1014 13.782C51.1145 13.7644 51.1316 13.7501 51.1512 13.7402C51.1709 13.7304 51.1925 13.7253 51.2144 13.7253H60.6589C60.6964 13.7253 60.7323 13.7103 60.7588 13.6837C60.7853 13.6572 60.8002 13.6211 60.8002 13.5835V1.85405C60.8004 1.82468 60.8096 1.79607 60.8267 1.77219C60.8437 1.74831 60.8677 1.73033 60.8954 1.72073C60.923 1.71113 60.953 1.71039 60.9811 1.71861C61.0092 1.72682 61.0341 1.7436 61.0522 1.7666Z" fill="black"/>
<path d="M60.9998 21.8647L85.9653 33.8069C85.986 33.8162 86.0038 33.8309 86.0171 33.8494L91.0267 40.4669C91.0455 40.4863 91.0582 40.5109 91.0633 40.5375C91.0684 40.5641 91.0656 40.5916 91.0554 40.6167C91.0451 40.6418 91.0278 40.6633 91.0056 40.6787C90.9833 40.694 90.9571 40.7025 90.9301 40.7032L60.8138 43.9836H60.7855L30.6644 40.7008C30.6375 40.7002 30.6112 40.6917 30.589 40.6763C30.5667 40.6609 30.5494 40.6394 30.5392 40.6143C30.529 40.5893 30.5262 40.5617 30.5313 40.5351C30.5364 40.5085 30.5491 40.484 30.5679 40.4645L35.5563 33.866C35.5694 33.8483 35.5865 33.834 35.6061 33.8242C35.6257 33.8144 35.6474 33.8092 35.6693 33.8092H60.6583C60.6958 33.8092 60.7317 33.7943 60.7582 33.7677C60.7847 33.7411 60.7996 33.705 60.7996 33.6674V22.0042C60.7978 21.9795 60.8024 21.9548 60.8129 21.9325C60.8235 21.9102 60.8397 21.8911 60.86 21.877C60.8802 21.8629 60.9037 21.8543 60.9283 21.8522C60.9528 21.8501 60.9775 21.8544 60.9998 21.8647Z" fill="black"/>
<path d="M60.9805 43.5653L103.375 56.259C103.404 56.2682 103.429 56.2864 103.448 56.3109L108.453 62.9284C108.468 62.9481 108.478 62.9716 108.481 62.9964C108.484 63.0212 108.48 63.0464 108.471 63.0693C108.461 63.0923 108.445 63.1122 108.425 63.1269C108.405 63.1416 108.381 63.1506 108.356 63.1529L60.8251 68.799H60.7992L13.3955 63.1765C13.3541 63.1717 13.3148 63.1561 13.2815 63.1311C13.2482 63.1061 13.222 63.0726 13.2058 63.0342C13.1895 62.9958 13.1837 62.9537 13.1888 62.9123C13.194 62.8709 13.2101 62.8316 13.2353 62.7984L18.3344 56.3677C18.3563 56.3383 18.3848 56.3145 18.4175 56.2981C18.4502 56.2817 18.4862 56.2731 18.5228 56.2731H60.6579C60.6954 56.2731 60.7313 56.2582 60.7578 56.2316C60.7843 56.205 60.7992 56.1689 60.7992 56.1313V43.7C60.7994 43.678 60.8047 43.6564 60.8146 43.6369C60.8245 43.6173 60.8388 43.6003 60.8564 43.5873C60.874 43.5742 60.8944 43.5654 60.9159 43.5616C60.9375 43.5578 60.9596 43.559 60.9805 43.5653Z" fill="black"/>
<path d="M60.9623 68.3523L119.483 77.9074C119.514 77.9128 119.543 77.9288 119.565 77.9529C119.586 77.977 119.599 78.0077 119.6 78.04C119.602 78.0722 119.593 78.104 119.574 78.1302C119.555 78.1564 119.528 78.1753 119.497 78.1839L60.8351 93.1417C60.812 93.1488 60.7874 93.1488 60.7644 93.1417L2.53837 78.295C2.50526 78.2862 2.47647 78.2657 2.45733 78.2371C2.4382 78.2086 2.43004 78.1741 2.43436 78.14C2.43867 78.106 2.45518 78.0746 2.48081 78.0518C2.50644 78.029 2.53945 78.0163 2.5737 78.0161H60.6584C60.6959 78.0161 60.7318 78.0012 60.7584 77.9746C60.7849 77.948 60.7997 77.9119 60.7997 77.8743V68.4917C60.7999 68.4714 60.8043 68.4513 60.8129 68.4328C60.8214 68.4144 60.8338 68.3979 60.8492 68.3847C60.8646 68.3715 60.8827 68.3617 60.9022 68.3561C60.9217 68.3506 60.9422 68.3492 60.9623 68.3523Z" fill="black"/>
<path d="M135.689 77.761V18.0266H160.844C165.404 18.0266 169.344 18.9003 172.665 20.6478C175.985 22.3953 178.547 24.8255 180.35 27.9384C182.154 31.0525 183.056 34.6687 183.057 38.7871C183.057 42.9264 182.14 46.5433 180.306 49.6376C178.472 52.7319 175.86 55.1281 172.472 56.8261C169.081 58.5266 165.056 59.3769 160.399 59.3769H144.877V47.8938H157.56C159.763 47.8938 161.606 47.5104 163.091 46.7436C164.516 46.0319 165.694 44.9061 166.469 43.5139C167.235 42.1263 167.619 40.5086 167.619 38.6609C167.619 36.7934 167.235 35.1764 166.469 33.8098C165.688 32.4319 164.504 31.3261 163.076 30.6413C161.583 29.8993 159.745 29.5282 157.56 29.5282H150.045V77.761H135.689Z" fill="black"/>
<path d="M187.947 77.761V18.0266H212.566C217.027 18.0266 220.883 18.8236 224.133 20.4178C227.383 22.012 229.89 24.2925 231.655 27.2594C233.421 30.2276 234.304 33.7406 234.304 37.7983C234.304 41.9142 233.402 45.4073 231.598 48.2778C229.793 51.1483 227.233 53.3323 223.916 54.83C220.598 56.3277 216.668 57.0766 212.128 57.0766H196.56V46.1685H209.325C211.477 46.1685 213.278 45.8853 214.729 45.3189C216.18 44.7525 217.279 43.8868 218.028 42.7217C218.777 41.5605 219.152 40.0671 219.152 38.2417C219.152 36.4162 218.777 34.9031 218.028 33.7022C217.278 32.5026 216.174 31.5998 214.714 30.9938C213.255 30.3878 211.459 30.0848 209.325 30.0848H202.302V77.761H187.947ZM221.801 50.1886L236.827 77.7536H220.918L206.192 50.1886H221.801Z" fill="black"/>
<path d="M267.772 18.0266V68.5652L253.412 77.761V31.2386H252.998L239.63 39.2434V26.9997L254.371 18.0266H267.772Z" fill="black"/>
<path d="M307.006 35.8356C306.813 33.7072 305.957 32.0487 304.439 30.8602C302.92 29.6717 300.756 29.0768 297.946 29.0756C296.091 29.0756 294.545 29.3174 293.308 29.8009C292.071 30.2845 291.144 30.9468 290.525 31.7877C289.909 32.6253 289.574 33.6364 289.568 34.6761C289.513 35.4954 289.7 36.3128 290.106 37.0266C290.543 37.746 291.138 38.3563 291.846 38.8112C292.711 39.3732 293.642 39.8261 294.618 40.1598C295.813 40.5782 297.034 40.9178 298.274 41.1764L303.379 42.3285C306.065 42.8823 308.679 43.7393 311.171 44.8829C313.259 45.8354 315.18 47.119 316.858 48.6841C318.367 50.1127 319.558 51.8426 320.355 53.7615C321.147 55.6772 321.553 57.8248 321.574 60.2043C321.554 63.9578 320.606 67.1789 318.73 69.8675C316.854 72.5562 314.161 74.6166 310.649 76.0487C307.138 77.4784 302.906 78.1939 297.953 78.1951C292.981 78.1951 288.648 77.4531 284.952 75.969C281.257 74.4849 278.384 72.221 276.334 69.1774C274.284 66.14 273.233 62.2999 273.18 57.6572H286.936C287.051 59.5742 287.563 61.1702 288.474 62.4452C289.422 63.7537 290.726 64.7616 292.232 65.3485C293.827 66.0052 295.682 66.3335 297.797 66.3335C299.732 66.3335 301.381 66.0726 302.745 65.5507C304.109 65.0288 305.16 64.3034 305.899 63.3747C306.626 62.4693 307.025 61.3437 307.03 60.182C307.035 59.1264 306.665 58.1034 305.986 57.2955C305.308 56.4916 304.269 55.7953 302.867 55.2066C301.131 54.5133 299.34 53.9648 297.513 53.5667L291.303 52.116C286.156 50.9362 282.104 49.0254 279.144 46.3837C276.185 43.7421 274.706 40.1642 274.709 35.6501C274.69 31.9757 275.679 28.7553 277.677 25.9887C279.674 23.2221 282.431 21.0646 285.947 19.5162C289.468 17.9691 293.482 17.1955 297.99 17.1955C302.592 17.1955 306.592 17.974 309.989 19.5311C313.386 21.0881 316.022 23.2691 317.895 26.074C319.773 28.8802 320.731 32.1303 320.769 35.8245L307.006 35.8356Z" fill="black"/>
<path d="M327.492 18.0266H345.26L360.342 54.7837H361.036L376.1 18.0266H394.105V77.761H380.324V41.0002H379.821L365.525 77.1748H355.973L341.758 41.0002H341.266V77.761H327.485L327.492 18.0266Z" fill="black"/>
</svg>
